<svg width="53" height="108" viewBox="0 0 53 108" fill="none" xmlns="http://www.w3.org/2000/svg">
<path d="M10.9274 90.48C11.0234 89.136 11.2634 88.368 11.6474 88.176C12.0314 87.984 12.3674 87.984 12.6554 88.176C13.0394 88.272 14.8154 88.464 17.9834 88.752C18.8474 89.808 19.5674 90.432 20.1434 90.624C22.4474 92.928 23.9834 94.08 24.7514 94.08C25.5194 94.176 25.8554 94.896 25.7594 96.24C25.7594 97.488 25.3274 98.64 24.4634 99.696C23.1194 102.672 21.3434 104.976 19.1354 106.608C18.0794 106.992 17.2634 107.184 16.6874 107.184C16.1114 107.184 14.5274 106.992 11.9354 106.608C9.43938 106.224 7.99938 105.456 7.61538 104.304V100.992C7.61538 99.168 7.80738 98.112 8.19138 97.824C8.67138 97.536 8.91138 96.768 8.91138 95.52L9.34338 92.496C10.0154 92.016 10.5434 91.344 10.9274 90.48ZM33.1034 22.944C33.5834 21.312 33.8234 20.4 33.8234 20.208C33.9194 19.92 34.0634 19.584 34.2554 19.2C35.0234 17.664 35.4074 16.608 35.4074 16.032V14.016C35.4074 13.344 35.3594 12.96 35.2634 12.864C35.1674 12.768 34.7354 12.72 33.9674 12.72C32.5274 13.008 30.5594 13.728 28.0634 14.88C25.6634 15.936 23.9354 16.944 22.8794 17.904C21.9194 18.768 20.6234 20.544 18.9914 23.232C17.3594 25.824 16.4474 27.552 16.2554 28.416C16.1594 29.28 15.9194 29.952 15.5354 30.432C15.2474 30.912 14.9114 32.064 14.5274 33.888C14.2394 35.616 14.0954 36.768 14.0954 37.344C14.0954 37.824 14.3354 38.064 14.8154 38.064C15.8714 38.256 15.5354 38.64 13.8074 39.216C13.5194 39.408 12.9914 39.504 12.2234 39.504C11.4554 39.504 10.9754 39.408 10.7834 39.216C8.95938 39.216 7.90338 38.976 7.61538 38.496C6.55938 38.496 5.40738 38.112 4.15938 37.344C2.91138 36.48 2.09538 35.52 1.71138 34.464C0.367375 30.528 0.799375 26.832 3.00738 23.376C4.25538 19.728 5.59938 17.376 7.03938 16.32C8.67138 12.864 9.63138 10.992 9.91938 10.704C10.3034 10.32 10.6394 10.08 10.9274 9.98399C11.3114 9.02399 11.5034 8.44799 11.5034 8.256C11.5034 7.96799 11.9354 7.58399 12.7994 7.10399C13.6634 6.528 14.3354 6.048 14.8154 5.664C15.7754 4.89599 16.2554 4.31999 16.2554 3.93599C16.9274 3.93599 17.5514 3.79199 18.1274 3.504C19.4714 3.216 20.3354 2.736 20.7194 2.064C21.2954 2.064 22.4954 1.776 24.3194 1.19999C26.1434 0.623995 28.5914 0.479997 31.6634 0.767999C32.1434 0.959996 33.0554 1.44 34.3994 2.208C35.7434 2.87999 36.5114 3.31199 36.7034 3.504C36.8954 3.6 37.1354 3.696 37.4234 3.79199C38.1914 4.08 38.8634 4.608 39.4394 5.376C40.3034 5.568 41.1194 5.904 41.8874 6.384C42.8474 7.248 44.0474 7.92 45.4874 8.39999L47.9354 9.83999C49.0874 10.032 50.0474 10.176 50.8154 10.272C51.1994 10.272 51.6794 10.944 52.2554 12.288C52.4474 17.28 50.2394 24 45.6314 32.448C45.3434 33.12 44.8154 34.176 44.0474 35.616C43.3754 36.96 42.9914 37.92 42.8954 38.496C41.9354 40.608 39.3434 46.08 35.1194 54.912C30.8954 63.744 28.4474 68.784 27.7754 70.032C27.6794 70.032 27.4394 70.32 27.0554 70.896C26.6714 71.376 26.3834 71.664 26.1914 71.76L25.4714 73.344C25.4714 73.824 24.9434 74.208 23.8874 74.496C22.9274 74.688 22.1594 74.736 21.5834 74.64H16.9754C14.6714 74.16 13.3274 73.728 12.9434 73.344C12.5594 72.96 12.3674 71.76 12.3674 69.744C12.3674 63.408 13.6634 58.176 16.2554 54.048C17.2154 51.648 18.0794 49.776 18.8474 48.432C19.7114 46.992 20.2394 45.888 20.4314 45.12C20.6234 44.352 21.3914 43.296 22.7354 41.952C23.3114 40.416 23.8874 39.264 24.4634 38.496C24.9434 38.304 25.6154 37.392 26.4794 35.76C27.4394 34.128 27.9194 33.072 27.9194 32.592C27.9194 32.016 28.3514 31.44 29.2154 30.864C29.2154 30.48 29.5034 29.856 30.0794 28.992C30.0794 27.648 30.3674 26.688 30.9434 26.112C31.5194 25.44 31.8074 24.672 31.8074 23.808C31.8074 23.232 32.2394 22.944 33.1034 22.944Z" fill="white"/>
</svg>
