<svg width="463" height="387" viewBox="0 0 463 387" fill="none" xmlns="http://www.w3.org/2000/svg">
<path d="M3.97127 17C5.29154 6.4615 11.5821 1.52922e-05 20.9708 0H216.966H246.034H442.029C451.418 1.52922e-05 457.708 6.4615 459.029 17C459.975 24.5541 456 41.6579 438 44.5C420 47.3421 406 39.5 399 53.5C392 67.5 414 84.5 423 99C432 113.5 453.408 142.519 459.029 165.685C464.649 188.852 463.988 203.387 459.029 226.701C453.85 251.048 446.536 264.1 432.529 284.741C418.184 305.881 406.904 315.721 387.031 331.867C367.67 347.597 355.83 355.859 333.032 366.095C310.967 376.003 297.434 379.568 273.534 383.458C257.716 386.031 244.661 387.255 231.5 386.956C218.339 387.255 205.284 386.032 189.466 383.458C165.566 379.568 152.033 376.003 129.968 366.095C107.17 355.859 95.3303 347.597 75.9694 331.867C56.0959 315.721 44.8164 305.881 30.4706 284.741C16.4636 264.1 9.15016 251.048 3.97127 226.701C-0.988097 203.387 -1.64911 188.852 3.97127 165.685C9.59165 142.519 31 113.5 40 99C49 84.5 66.0303 70.4054 64 53.5C61.9697 36.5946 43 47.3421 25 44.5C7 41.6579 3.02489 24.5541 3.97127 17Z" fill="white"/>
</svg>
