<svg width="509" height="456" viewBox="0 0 509 456" fill="none" xmlns="http://www.w3.org/2000/svg">
<path d="M78 358.5L62.5 431L125 390.83" stroke="white" stroke-width="23"/>
<path d="M426.112 365L440 431L384 394.431" stroke="white" stroke-width="23"/>
<path d="M452.5 79.5H175" stroke="white" stroke-width="24" stroke-linecap="round" stroke-linejoin="round"/>
<path d="M43.9708 11.5C36.4628 11.5 29.5248 14.1667 24.2839 19.4462C19.1799 24.5878 16.4574 31.4109 15.5605 38.5704C14.7885 44.7325 15.9967 53.3756 20.3494 61.1403C24.983 69.4062 33.3158 76.8239 46.2064 78.8593C52.0418 79.7806 57.662 79.5601 62.3097 79.1921C64.4734 79.0207 66.2362 78.8442 67.7918 78.6883C70.0453 78.4626 71.8638 78.2805 73.8352 78.221C74.5811 78.1986 75.1673 78.2072 75.6194 78.2287C75.9777 82.2647 74.2679 86.944 69.6642 93.6306C67.6426 96.567 65.3805 99.457 62.8793 102.653C62.5142 103.119 62.144 103.592 61.7686 104.073C58.948 107.685 55.8429 111.724 53.2291 115.935C51.5846 118.585 49.5105 121.735 47.0808 125.425C46.3362 126.555 45.5582 127.737 44.749 128.97C41.366 134.126 37.569 139.991 33.8578 146.175C26.5761 158.308 19.0395 172.602 15.7955 185.974C9.68804 211.148 10.484 227.465 15.7229 252.094C21.3306 278.456 29.5107 292.914 43.9548 314.198C59.2403 336.723 71.5408 347.4 91.7178 363.792C111.582 379.932 124.276 388.819 148.258 399.586C171.405 409.979 185.932 413.791 210.619 417.808C226.765 420.436 240.497 421.757 254.5 421.459C268.503 421.757 282.235 420.436 298.381 417.808C323.068 413.791 337.595 409.979 360.742 399.586C384.724 388.819 397.418 379.932 417.282 363.792C437.459 347.399 449.76 336.723 465.045 314.198C479.489 292.914 487.669 278.456 493.277 252.094C498.516 227.465 499.312 211.148 493.205 185.974C489.96 172.602 482.424 158.308 475.142 146.175C471.431 139.991 467.634 134.126 464.251 128.97C463.442 127.737 462.664 126.556 461.919 125.425C459.49 121.735 457.415 118.585 455.771 115.935C453.041 111.537 449.486 107.188 446.293 103.368C445.714 102.675 445.146 101.998 444.588 101.333C441.88 98.1085 439.42 95.1777 437.262 92.2458C434.636 88.6783 433.128 85.9746 432.479 83.9552C431.945 82.2953 432.195 81.8179 432.276 81.6623C432.28 81.6552 432.283 81.6488 432.286 81.6429C433.038 80.1382 433.535 79.9279 433.615 79.8945C433.618 79.8929 433.621 79.8917 433.623 79.8908C433.983 79.7125 434.977 79.3709 437.626 79.313C439.455 79.2731 441.162 79.3509 443.319 79.4491C444.649 79.5097 446.151 79.5781 447.957 79.6315C452.217 79.7573 457.276 79.7305 462.794 78.8593C475.684 76.8239 484.017 69.4062 488.651 61.1403C493.003 53.3756 494.212 44.7325 493.44 38.5704C492.543 31.4109 489.82 24.5878 484.716 19.4462C479.475 14.1667 472.537 11.5 465.029 11.5H269.034H239.966H43.9708Z" stroke="white" stroke-width="23"/>
</svg>
